<svg version="1.1" id="Layer_1" xmlns="http://www.w3.org/2000/svg" xmlns:xlink="http://www.w3.org/1999/xlink" x="0px" y="0px"
	 width="100%" viewBox="0 0 1024 1024" enable-background="new 0 0 1024 1024" xml:space="preserve">
<path fill="#000000" opacity="1.000000" stroke="none" 
	d="
M355.413635,384.648254 
	C366.664429,411.944031 384.027863,434.535217 404.195496,455.212616 
	C421.422821,472.875336 439.236206,489.957062 457.699158,506.278595 
	C470.706604,517.777344 471.853333,531.407288 468.331635,546.626282 
	C466.074005,556.382629 459.902008,563.425171 451.641174,568.834656 
	C433.520081,580.701050 415.708069,593.030640 398.367798,606.001160 
	C372.108063,625.643311 349.140869,648.340393 333.605652,677.736084 
	C323.356995,697.128540 317.240448,717.698669 315.203400,739.530701 
	C313.290741,760.029236 314.023956,780.410461 317.266144,800.736023 
	C317.746429,803.747131 319.023010,805.348572 321.842346,806.489807 
	C348.858551,817.425476 377.024902,823.907959 405.664490,828.770630 
	C449.037811,836.134888 492.740601,838.088135 536.596008,836.576782 
	C566.762756,835.537231 596.682129,832.243286 625.659729,822.896729 
	C630.643555,821.289185 633.374634,819.050781 634.473999,813.705872 
	C639.581543,788.873474 644.054749,763.973572 642.615601,738.485046 
	C640.888794,707.901672 631.876831,679.750122 613.879089,654.645020 
	C597.144165,631.301453 576.089783,612.104492 555.233276,592.692688 
	C550.354675,588.151978 545.500183,583.585327 540.640686,579.024109 
	C531.147644,570.113770 528.317200,559.169678 531.064636,546.688965 
	C532.171997,541.658813 533.859863,536.759033 535.151855,531.765869 
	C535.842834,529.095520 537.725769,527.632690 539.853088,526.228455 
	C558.900085,513.655334 577.998413,501.158295 596.942139,488.431122 
	C618.919312,473.665894 639.064270,456.795624 654.862122,435.322083 
	C665.666260,420.636292 674.560608,404.835785 680.469238,387.488342 
	C682.787781,380.680908 682.246643,380.137543 675.186951,379.840820 
	C656.531494,379.056915 637.868103,379.432800 619.209290,379.216309 
	C617.622742,379.197906 615.918945,379.505005 613.808044,377.760040 
	C632.592651,366.963654 650.915466,356.432709 669.238342,345.901764 
	C666.155701,353.686584 659.864319,358.950500 655.698425,365.501648 
	C656.998169,368.339966 659.251953,367.631622 661.106262,367.642548 
	C673.604553,367.716339 686.103516,367.669373 698.601990,367.726807 
	C703.831238,367.750854 704.216187,368.292358 702.604004,373.233826 
	C692.871277,403.065674 680.245605,431.347504 659.186401,455.208069 
	C642.636597,473.959381 623.464355,489.532440 602.778748,503.485596 
	C587.719727,513.643372 572.203064,523.067871 557.073669,533.099243 
	C547.530212,539.426819 544.161743,547.798523 546.276367,558.866089 
	C547.039795,562.861633 549.338013,565.828003 552.168030,568.483398 
	C564.561218,580.111511 577.137634,591.549500 589.352539,603.361511 
	C610.265137,623.584351 630.047546,644.778259 642.324585,671.678345 
	C651.380920,691.521667 656.653748,712.331726 658.478760,734.160034 
	C660.119995,753.790161 658.062866,773.034424 654.585632,792.233582 
	C653.917603,795.922180 654.961365,797.625732 658.505859,798.865845 
	C666.203064,801.558716 673.862793,804.460632 680.410889,809.568665 
	C687.115112,814.798462 690.935059,821.226868 690.350647,830.161072 
	C689.843445,837.913452 688.563660,845.690308 689.638611,853.594849 
	C692.952637,854.182312 695.641296,853.123413 698.230835,851.485291 
	C702.595276,848.724487 707.061890,846.121216 711.371399,843.278625 
	C715.277344,840.702209 718.712036,840.775757 722.085693,844.214172 
	C725.116821,847.303650 728.546143,850.019531 731.434448,853.229004 
	C743.216248,866.320923 759.060242,869.038208 775.305786,870.181702 
	C785.485474,870.898193 795.548157,872.140747 806.335083,873.807922 
	C802.253174,877.560608 797.649963,875.918213 793.809631,876.102234 
	C776.945923,876.910217 760.017517,876.515686 743.175110,877.562805 
	C733.322815,878.175354 723.242432,878.137756 713.671875,881.345215 
	C711.499023,882.073364 709.077271,882.694397 708.979126,886.649170 
	C728.278015,889.953674 747.992554,890.084839 768.113770,892.393433 
	C766.721191,894.235962 765.213013,894.102783 763.885864,894.153198 
	C727.612671,895.532104 691.325073,896.152832 655.026245,896.219910 
	C639.459778,896.248657 623.891846,896.284607 608.328125,896.537842 
	C601.780945,896.644348 594.603638,895.781006 588.874939,898.158630 
	C582.743835,900.703247 577.227478,897.504761 571.535706,899.220093 
	C563.914795,901.516968 556.050842,899.805420 548.286011,899.831299 
	C537.738586,899.866455 527.192200,900.311890 516.645203,900.316833 
	C514.319885,900.317932 513.774536,902.301208 511.852142,903.198608 
	C508.482117,897.805603 502.818115,899.936340 498.253845,900.003662 
	C488.065338,900.153870 477.936066,899.119446 467.760803,899.252197 
	C462.130707,899.325684 456.518921,899.969727 450.759308,899.240906 
	C448.797668,898.992615 444.639832,898.097595 441.808136,900.673340 
	C440.106689,902.221008 439.328949,899.997009 439.550781,897.764343 
	C435.668152,900.096436 432.536987,899.058350 429.706573,897.783264 
	C428.322479,898.333801 429.320923,899.993713 427.500702,900.383606 
	C426.040558,899.242371 423.652618,899.534546 421.815857,898.854736 
	C418.982727,897.806152 416.365509,898.247559 413.701843,898.390015 
	C400.308807,899.106262 386.925140,899.997681 373.536804,900.804993 
	C372.721649,900.854126 371.578278,901.040649 371.120483,900.604248 
	C363.573700,893.410706 354.115173,896.769409 345.631775,896.504761 
	C318.994019,895.673828 292.318970,896.390076 265.672363,895.312805 
	C256.019470,894.922546 246.364212,894.591919 236.710815,894.214050 
	C235.760895,894.176880 234.652924,894.417969 234.085358,893.165771 
	C234.425125,890.994324 236.162460,891.568115 237.548111,891.449951 
	C251.132294,890.292419 264.720734,889.145996 278.135590,886.605469 
	C280.426117,886.171692 283.214478,886.217834 284.286682,882.878601 
	C281.857452,881.208679 279.221405,881.442444 276.615997,881.455566 
	C264.001068,881.519287 251.385849,881.606873 238.771255,881.554626 
	C237.130692,881.547791 234.920181,882.560425 234.492096,879.039673 
	C234.236313,876.936157 230.949326,877.147339 228.858719,877.088379 
	C216.206757,876.731689 203.552567,876.453857 190.898758,876.165405 
	C188.263000,876.105347 185.637909,876.063904 183.176117,874.178345 
	C184.792313,872.125427 187.091400,872.296570 189.105576,872.020508 
	C204.357254,869.930725 218.205368,864.669800 228.855377,853.176514 
	C234.819550,846.740112 242.236954,843.301270 250.295105,841.101929 
	C253.803497,840.144287 254.664276,838.614380 254.893829,835.339417 
	C255.301544,829.522156 256.052826,823.703430 255.644363,817.885803 
	C254.736465,804.954651 261.422180,796.437683 271.573822,789.968750 
	C278.365967,785.640503 285.970795,783.042114 293.621246,780.700684 
	C297.118011,779.630432 298.442413,778.230896 298.229736,774.034973 
	C295.567322,721.503052 309.057709,674.271057 344.195679,633.995544 
	C363.806000,611.518005 387.518280,594.131104 411.812927,577.356018 
	C422.369232,570.067078 433.060669,562.974060 443.635712,555.711853 
	C456.856567,546.632812 458.619751,529.490356 447.186859,518.181030 
	C437.239838,508.341553 426.743683,499.059631 416.691589,489.323395 
	C403.881683,476.916046 391.458435,464.160980 380.782806,449.773224 
	C364.160034,427.370392 353.870422,402.408539 349.611420,374.900940 
	C349.467743,373.972931 348.866608,372.968933 350.182617,371.594025 
	C352.975037,375.512756 353.229401,380.307159 355.413635,384.648254 
M415.243622,861.041382 
	C424.964935,862.441467 434.746826,863.189697 444.537048,863.917542 
	C479.336975,866.504883 514.159668,866.317322 548.976135,864.604858 
	C554.105591,864.352539 559.255432,863.515564 564.393188,861.752136 
	C569.620911,859.957947 575.819519,858.532288 581.296753,862.833679 
	C582.719482,861.615601 583.015564,859.708313 585.611145,859.526855 
	C594.968933,858.872192 603.929016,855.940979 613.003723,853.695618 
	C619.495483,852.089417 625.977966,849.655151 632.548523,849.339966 
	C642.904114,848.843201 650.985840,843.124207 660.098694,839.810852 
	C655.028259,840.803955 650.108459,842.294678 645.103088,843.396423 
	C615.642700,849.881226 585.882080,854.175049 555.718262,855.541504 
	C523.238525,857.012878 490.781891,856.753906 458.337799,854.612244 
	C433.070679,852.944275 408.020691,849.522949 383.069366,845.329407 
	C355.485229,840.693298 328.141632,835.023499 301.698120,825.660645 
	C291.852692,822.174683 282.202637,818.234375 273.316956,812.577637 
	C270.031921,820.063171 270.489105,822.130249 276.736023,826.229797 
	C284.723633,831.471619 293.471527,835.256775 302.517639,838.135559 
	C338.968781,849.735535 376.488068,856.204407 415.243622,861.041382 
M652.042480,877.532043 
	C647.319031,875.475464 642.669617,873.220032 637.848572,871.425537 
	C634.018860,870.000000 629.546387,867.589661 625.940063,870.146484 
	C621.342468,873.405945 618.309937,878.466553 614.365540,884.270203 
	C631.230896,884.428528 646.740234,884.845947 662.290649,883.592224 
	C659.418823,880.714539 656.031494,879.359985 652.042480,877.532043 
M286.580750,845.500122 
	C286.781677,837.364929 278.694977,838.600159 275.178619,834.402649 
	C274.477173,835.444946 274.109467,835.809326 273.955902,836.248535 
	C272.836456,839.450195 273.446594,842.819397 273.051910,846.097961 
	C272.032257,854.568481 275.530701,858.601685 284.678009,859.484436 
	C286.476776,855.279907 285.048615,850.603271 286.580750,845.500122 
M319.832611,872.378601 
	C320.907196,870.696960 322.178314,869.107422 323.017853,867.315613 
	C325.143738,862.778442 327.975342,862.846802 331.719147,865.399414 
	C335.810638,868.189026 340.110260,870.673401 344.319183,873.290771 
	C338.869385,868.011108 333.303162,863.037964 326.992828,858.977051 
	C324.322205,857.258362 322.471680,857.544556 320.741882,860.100708 
	C316.454742,866.435852 312.109558,872.731750 307.836914,879.076599 
	C307.127167,880.130554 306.148590,881.222168 307.016113,882.964355 
	C310.177002,884.508179 312.756165,884.185364 314.670563,880.593079 
	C316.074615,877.958435 317.841888,875.517273 319.832611,872.378601 
M248.424240,854.449951 
	C242.482254,857.141663 237.388245,861.053406 231.303238,865.178223 
	C241.548874,867.897156 246.986938,861.146423 254.105560,858.029175 
	C252.413956,856.021545 250.751785,855.287598 248.424240,854.449951 
M393.851593,888.533386 
	C397.279083,887.466370 398.096832,883.738953 401.190918,882.101440 
	C394.632111,878.445618 391.883575,879.858337 388.955688,887.888123 
	C390.156860,889.156189 391.707733,888.525757 393.851593,888.533386 
M299.582886,797.928894 
	C297.433990,793.451050 294.436859,793.559814 290.647675,798.402893 
	C293.051483,800.518921 295.879639,801.560181 298.789246,802.142334 
	C299.991974,800.969238 299.613678,799.766541 299.582886,797.928894 
M270.490112,867.330322 
	C265.995300,863.235291 263.671967,863.584106 257.620758,870.037476 
	C262.581940,869.028137 266.944427,871.345947 270.490112,867.330322 
M646.985901,828.444763 
	C651.760498,829.246521 656.039551,827.852173 660.660278,825.711609 
	C655.111511,823.479370 654.123718,823.666748 646.985901,828.444763 
M713.760071,858.201050 
	C714.684265,857.484253 716.730103,857.866272 716.284485,855.829590 
	C716.063232,854.817993 715.090454,853.823181 714.172974,854.022888 
	C711.452332,854.614929 709.831787,856.550659 708.774109,859.048340 
	C710.625305,860.262207 711.847900,859.115417 713.760071,858.201050 
z"/>
<path fill="#000000" opacity="1.000000" stroke="none" 
	d="
M517.524536,509.992859 
	C510.204376,522.702759 503.048798,535.038757 495.907806,547.349731 
	C493.306763,546.218140 493.313049,544.131531 492.832153,542.493042 
	C489.635010,531.599487 483.181305,522.942932 475.072601,515.193542 
	C454.476624,495.510193 433.192719,476.537292 413.318542,456.110168 
	C393.300262,435.535034 376.073853,412.952240 365.727997,385.835693 
	C357.278961,363.690857 352.703613,340.914795 354.441345,316.975586 
	C355.909973,296.743469 361.186310,277.338043 365.978821,257.813049 
	C367.026672,253.544006 366.548859,251.112473 362.319733,249.089325 
	C355.535583,245.843903 349.471161,241.334534 343.963104,236.210785 
	C336.513672,229.281143 332.961212,221.018600 335.392578,210.600281 
	C337.355682,202.188385 338.942169,193.681488 340.457031,185.174240 
	C341.759583,177.859604 346.195770,173.356155 352.726624,170.579208 
	C358.762451,168.012756 365.063599,166.841675 371.653015,166.599609 
	C406.097229,165.334366 440.075775,169.675247 474.047791,174.542648 
	C511.134003,179.856216 547.917236,186.663361 584.291382,195.645264 
	C591.077637,197.321014 597.843323,199.088593 604.576599,200.964096 
	C606.075012,201.381470 607.951538,201.346954 609.043152,203.312973 
	C607.027466,206.529190 603.062195,207.154327 600.428650,209.484695 
	C592.781799,216.251282 584.754639,215.773926 575.173096,213.365204 
	C538.052307,204.033310 500.481659,196.803711 462.428619,192.266418 
	C447.393829,190.473724 432.442413,187.865326 417.213593,188.340576 
	C413.493958,188.456680 413.492767,188.418961 409.233948,190.658890 
	C415.559570,192.332611 420.686890,195.169235 426.482880,195.582321 
	C460.729767,198.023254 494.567780,203.335007 528.194519,210.053024 
	C542.873108,212.985565 557.446899,216.446274 572.054810,219.726669 
	C574.954468,220.377808 577.793030,221.300629 580.546814,222.066711 
	C580.826904,224.654282 578.876038,225.131882 577.634583,226.025803 
	C573.039368,229.334671 568.316895,232.466965 563.724854,235.780014 
	C561.531616,237.362305 558.676819,238.519547 559.887146,242.393265 
	C560.497864,244.347977 558.194641,245.042526 556.866333,245.880447 
	C544.050293,253.965347 531.195984,261.989624 518.353638,270.032806 
	C516.690063,271.074677 514.808594,271.859253 513.751282,273.620270 
	C514.583496,276.285187 516.951050,276.046997 518.716614,276.500610 
	C524.517090,277.990814 530.347900,279.399292 536.224976,280.541412 
	C540.081482,281.290863 541.346985,282.870087 539.770386,286.730225 
	C537.504883,292.276733 535.527649,297.943207 533.520874,303.591705 
	C532.923706,305.272461 531.984985,306.546722 530.394348,307.281586 
	C517.696289,313.148224 504.991455,319.000153 492.274323,324.825195 
	C491.877502,325.006989 491.324707,324.848267 489.158203,324.848267 
	C499.620056,313.075989 509.527740,302.427490 519.960815,292.386108 
	C519.140686,290.534851 517.713013,290.571747 516.450989,290.362885 
	C485.758881,285.282501 455.185638,279.638397 425.170898,271.309021 
	C419.129883,269.632568 418.931488,269.780273 417.417450,275.907928 
	C414.025177,289.637238 410.637970,303.367798 407.278442,317.105133 
	C406.843475,318.883759 406.598297,320.715118 404.553986,321.306091 
	C402.144806,320.104065 402.848572,318.057800 402.903748,316.353882 
	C403.389374,301.353943 405.781830,286.562347 408.185150,271.794617 
	C408.774719,268.171875 407.973633,266.653381 404.592529,265.592194 
	C397.483368,263.360931 390.478638,260.797058 383.020355,258.228271 
	C372.594452,294.062927 364.988708,329.175964 375.901184,366.062286 
	C387.999939,406.958405 414.153503,437.235535 446.164612,463.734406 
	C420.756805,429.440704 404.300629,391.852844 401.513062,348.086487 
	C410.299866,348.936554 417.935944,350.993225 425.592224,352.880096 
	C427.444855,353.336731 427.210968,355.150024 427.368683,356.622437 
	C429.123779,373.008423 431.161713,389.330078 436.227112,405.126526 
	C443.887115,429.014282 454.781128,451.102386 471.658661,469.933228 
	C471.972443,470.283325 472.422760,470.511047 473.063202,470.637817 
	C466.742615,460.706177 461.208557,450.394409 456.552521,439.604309 
	C445.395752,413.749115 439.412048,386.834595 439.732208,358.610870 
	C439.751770,356.885132 438.903503,354.560852 440.976135,353.639648 
	C443.261597,352.623779 444.595917,354.818787 445.908478,356.179352 
	C452.964691,363.493530 460.378662,370.528198 466.795135,378.374146 
	C472.420441,385.252777 479.344299,387.362701 487.679962,387.781677 
	C502.472992,388.525208 517.239990,389.779297 532.022339,390.751312 
	C534.457214,390.911407 536.208618,391.665802 536.750366,394.251312 
	C537.602478,398.318115 538.421448,402.393097 539.361389,406.439789 
	C540.025635,409.299469 538.574585,411.116089 536.725037,412.981781 
	C528.280518,421.500366 519.934998,430.117035 511.503021,438.648193 
	C509.108917,441.070496 508.514191,443.535034 508.921204,447.123688 
	C511.078125,466.143005 514.747681,484.900513 518.033691,503.726837 
	C518.377991,505.699554 518.601746,507.702271 517.524536,509.992859 
M364.773834,207.706665 
	C382.838959,217.360687 402.279358,223.383118 421.961090,228.427917 
	C446.416779,234.696350 470.863159,241.385818 496.313690,242.433868 
	C500.397888,242.602051 504.602356,244.273865 508.170502,243.958252 
	C516.241516,243.244385 524.694580,244.448151 532.768982,240.657028 
	C530.755249,240.159195 529.030518,239.618286 527.265076,239.313995 
	C508.587067,236.094406 489.803558,233.452759 471.289795,229.330383 
	C440.091339,222.383575 409.138245,214.585480 379.332336,202.781799 
	C371.303070,199.602051 363.723755,195.530670 356.249817,191.364731 
	C352.306946,197.313446 352.628632,199.620941 357.800537,203.354004 
	C359.821838,204.812988 362.003296,206.050064 364.773834,207.706665 
M362.934418,230.398224 
	C365.014832,235.286102 369.950623,236.901535 374.053253,237.233200 
	C377.705780,237.528488 376.437134,232.219086 377.659149,229.528854 
	C378.196075,228.346878 378.355835,226.975464 378.571533,225.671021 
	C378.770477,224.467667 378.601501,223.147827 377.395782,222.640961 
	C373.678986,221.078354 370.504578,218.089706 365.819550,217.992065 
	C364.880280,222.017654 363.983124,225.862732 362.934418,230.398224 
M465.751648,212.672333 
	C473.517242,214.803848 473.517242,214.803848 475.991119,211.698380 
	C469.168213,210.140472 462.579590,208.882126 455.812347,208.678558 
	C458.494476,211.082199 462.007965,211.080276 465.751648,212.672333 
M374.287811,192.414703 
	C377.521332,193.892517 380.606903,195.784576 384.382080,195.800125 
	C380.067261,193.650345 375.752472,191.500565 370.754425,189.010376 
	C371.511353,191.284088 372.899628,191.317963 374.287811,192.414703 
z"/>
<path fill="#000000" opacity="1.000000" stroke="none" 
	d="
M534.940063,832.226135 
	C503.459412,832.738647 472.456696,832.966187 441.629547,829.228394 
	C404.410461,824.715454 367.545654,818.473999 332.501099,804.287720 
	C328.212402,802.551697 326.139191,800.190430 326.511871,795.352783 
	C326.724945,792.587585 327.242249,790.907227 329.861176,789.460205 
	C378.129425,762.790527 425.240143,734.139832 472.576050,705.874695 
	C474.005493,705.021118 475.500031,704.274841 476.914978,703.398987 
	C487.168854,697.052673 486.497192,697.061401 496.940277,704.771118 
	C533.658386,731.878601 570.453125,758.882141 607.223755,785.918274 
	C613.392517,790.453918 619.571106,794.976501 625.775024,799.463867 
	C628.260803,801.261841 630.014526,803.463318 628.994141,806.638428 
	C627.635559,810.865967 629.554077,816.389526 622.963257,818.497131 
	C605.912354,823.949707 588.434448,827.159058 570.737488,829.218811 
	C559.011292,830.583618 547.202881,831.241760 534.940063,832.226135 
M442.763153,765.262878 
	C446.201508,761.742615 449.639862,758.222412 453.078247,754.702209 
	C446.492340,773.363831 436.058990,789.328430 423.366821,803.899292 
	C455.790100,786.084656 483.576263,738.245361 483.204163,713.436829 
	C475.104736,715.498291 369.099426,790.373657 362.649109,798.712280 
	C371.578705,796.704773 379.605560,793.136963 387.478668,789.152283 
	C395.302673,785.192444 402.470490,780.160461 410.007324,775.472168 
	C406.154510,785.398376 399.150604,793.105408 391.805206,801.479065 
	C404.006744,798.269592 425.818237,782.650269 442.763153,765.262878 
M583.834839,804.166870 
	C584.627014,804.538818 584.883728,805.911255 586.346069,805.399780 
	C581.349548,798.805420 575.928345,792.811707 569.413391,787.866028 
	C572.991577,794.140503 578.372803,798.776245 583.834839,804.166870 
z"/>
<path fill="#000000" opacity="1.000000" stroke="none" 
	d="
M521.270386,609.995972 
	C520.272156,622.227539 519.263855,633.993225 518.323486,645.764282 
	C518.134827,648.125305 517.664917,650.337585 514.809692,650.235779 
	C511.644135,650.122864 512.014465,647.394470 511.994568,645.330566 
	C511.829193,628.168396 511.747711,611.005310 511.617706,593.842712 
	C511.596375,591.029358 511.757874,588.176514 510.510162,585.518066 
	C507.855591,586.556335 505.360657,582.437378 503.253876,584.663635 
	C500.909363,587.141174 500.852478,591.024780 500.494354,594.315369 
	C497.276428,623.885376 494.358795,653.488159 491.110138,683.054565 
	C490.787994,685.986389 491.470795,689.694519 487.927368,692.217163 
	C485.964813,689.162048 486.765930,686.140991 486.924500,683.308044 
	C487.779755,668.030945 488.576385,652.746948 489.740173,637.491760 
	C491.144287,619.086121 492.899017,600.707214 494.495331,582.316162 
	C495.228790,573.866150 496.008392,565.419495 496.641632,556.961914 
	C496.909088,553.389771 497.851593,550.096008 499.712463,547.057983 
	C505.542450,537.539917 511.034912,527.789429 517.343628,518.599548 
	C521.378296,512.722290 522.772217,506.901154 521.608093,499.964600 
	C518.938293,484.056793 516.774597,468.063171 514.024658,452.170258 
	C513.142883,447.074066 514.064514,443.375641 517.940308,439.806061 
	C525.657959,432.698059 532.986938,425.168335 540.489197,417.825867 
	C541.413574,416.921173 542.210632,415.755615 543.802612,415.790192 
	C545.782104,417.254700 545.694824,419.636749 546.162292,421.629211 
	C547.946899,429.235901 549.499390,436.897552 551.099060,444.546906 
	C551.872375,448.244598 551.474548,451.751587 549.724915,455.207642 
	C546.877808,460.831818 544.282104,466.583252 541.883789,472.473999 
	C547.926270,465.335724 553.146240,457.539886 557.142700,449.180969 
	C559.390808,444.478943 556.115479,439.114227 555.454285,434.041534 
	C554.618042,427.626251 553.397400,421.216370 551.742126,414.963104 
	C549.314270,405.790710 553.099854,397.607574 555.094910,389.116364 
	C555.496521,387.407135 557.082764,387.038239 558.935547,386.467072 
	C557.065552,383.886536 557.942932,382.268921 560.419800,380.566925 
	C574.422119,370.945404 588.305359,361.150146 602.195557,351.366333 
	C604.157654,349.984314 606.576904,348.917847 607.207275,345.522888 
	C580.167358,345.522888 553.345337,345.522888 526.524414,345.530212 
	C530.236023,340.741882 624.413391,300.494781 632.807190,300.182068 
	C634.180908,303.463135 632.907715,306.668152 632.341980,309.866150 
	C630.112061,322.472107 627.702026,335.047852 625.640747,347.680847 
	C625.123840,350.849060 623.630310,352.662384 621.054993,354.259705 
	C609.305420,361.547272 597.631592,368.957184 585.951843,376.356812 
	C583.738586,377.758972 581.312744,378.947296 579.856384,381.144684 
	C580.430603,383.885071 582.679077,384.068481 584.457825,384.708435 
	C592.290344,387.526215 600.099915,390.429932 608.032043,392.941345 
	C613.690979,394.733063 611.432190,398.064545 610.480347,401.601715 
	C609.331482,405.871338 607.089172,405.537018 603.790894,404.166992 
	C591.951416,399.249084 580.035217,394.515564 568.138367,389.736328 
	C566.769226,389.186310 565.339844,388.786469 563.392395,389.302734 
	C568.464417,392.045410 573.481140,394.897064 578.621033,397.505981 
	C586.937317,401.727081 595.277527,405.910675 603.725647,409.857635 
	C607.102234,411.435181 607.436035,413.328827 606.127502,416.548584 
	C601.753723,427.310425 596.864258,437.837738 592.118408,448.460663 
	C600.356262,438.644989 607.108704,427.879181 612.595642,416.331482 
	C615.095947,411.069427 617.588379,405.753693 619.427734,400.243103 
	C620.960999,395.649323 623.908936,394.110687 628.310059,393.833740 
	C638.435547,393.196594 648.546936,392.333099 658.673340,391.714050 
	C662.949829,391.452637 667.128845,390.039581 672.208984,390.588318 
	C671.150757,396.017944 668.811829,400.717987 666.491638,405.354706 
	C651.229248,435.856415 628.459106,459.750275 601.067688,479.601990 
	C581.098816,494.074280 560.153870,507.082458 539.655640,520.758728 
	C533.671509,524.751343 529.653137,529.153625 528.759460,536.840088 
	C527.861145,544.566833 525.612000,552.101562 525.987793,560.048889 
	C526.328186,567.246704 528.759644,573.425049 533.852783,578.404785 
	C546.834045,591.097046 560.110901,603.490784 572.952942,616.320801 
	C591.174927,634.525696 607.747009,654.017273 619.022705,677.510803 
	C630.117615,700.627747 634.153870,724.933655 631.614868,750.351013 
	C631.267212,753.831421 632.244690,757.599060 629.168091,760.916260 
	C628.785950,755.797241 628.259277,750.684265 628.044739,745.558228 
	C626.458557,707.658691 608.857483,676.847351 585.069092,648.873169 
	C575.022339,637.058533 563.908630,626.234436 552.124084,616.132019 
	C550.667603,614.883423 549.211121,612.922180 546.976135,613.738770 
	C544.577332,614.615234 545.207764,617.080322 545.065552,618.975647 
	C544.120117,631.583740 543.235901,644.196472 542.354858,656.809326 
	C542.210449,658.875977 542.170593,661.123413 539.331604,661.007690 
	C536.437073,660.889709 536.641541,658.506592 536.695251,656.527344 
	C536.984375,645.876038 537.581848,635.226440 537.588684,624.575928 
	C537.594849,615.001160 532.431824,606.801758 529.521973,598.009399 
	C529.027100,596.514099 527.576599,595.164551 525.583313,595.596191 
	C523.743713,595.994629 522.825989,597.432251 522.464172,599.145142 
	C521.741760,602.564636 521.065796,606.000732 521.270386,609.995972 
M613.696167,316.765564 
	C605.881287,318.744263 598.825378,322.510895 591.642761,326.008179 
	C599.048218,324.162506 606.354309,322.056274 613.652954,319.924438 
	C614.883423,319.565033 616.489624,319.441559 616.327393,317.601624 
	C616.233337,316.534302 615.214478,316.576813 613.696167,316.765564 
z"/>
<path fill="#000000" opacity="1.000000" stroke="none" 
	d="
M447.772522,579.723389 
	C452.475311,576.523560 456.895813,573.545532 461.293365,570.534058 
	C473.406494,562.238770 479.906555,550.896179 480.003876,536.065918 
	C480.010925,534.992432 479.453339,533.726318 481.197937,532.552917 
	C485.578247,538.804688 490.274109,544.944885 489.037842,553.141357 
	C484.352325,584.206604 479.401001,615.231812 474.632202,646.284729 
	C473.228333,655.426208 472.099060,664.609802 470.770599,674.309814 
	C468.426300,672.734192 468.995056,670.969910 469.086517,669.470886 
	C470.617340,644.386414 472.179230,619.303772 473.772369,594.223145 
	C473.909149,592.070007 474.419525,589.940979 474.566071,587.787903 
	C474.706818,585.719727 474.330719,583.600647 472.231812,582.674377 
	C470.221558,581.787170 468.698151,583.259033 467.462463,584.593567 
	C459.429993,593.268433 451.390717,601.938782 443.479675,610.724121 
	C430.661865,624.958679 417.942932,639.282227 405.173309,653.560242 
	C404.508484,654.303589 403.789307,655.004944 403.044769,655.669128 
	C401.647583,656.915649 400.112335,657.371094 398.606628,655.926575 
	C397.162750,654.541321 397.257690,652.851074 398.417511,651.415161 
	C400.928131,648.306885 403.574432,645.307434 406.187134,642.282410 
	C415.113098,631.947937 424.059845,621.631287 432.961243,611.275757 
	C433.782593,610.320190 435.008698,609.492737 434.653137,606.905273 
	C408.915222,626.641235 386.614349,648.848206 368.901459,675.474609 
	C350.858398,702.597229 341.687225,732.635376 340.507477,765.965942 
	C337.955719,763.840576 338.058746,761.654236 337.851898,759.688477 
	C333.317047,716.587341 346.170441,679.052063 373.361267,645.667542 
	C394.544434,619.659119 420.012909,598.727661 447.772522,579.723389 
z"/>
<path fill="#000000" opacity="1.000000" stroke="none" 
	d="
M741.009949,291.147888 
	C727.162903,299.856262 712.624512,306.527710 698.481812,313.927490 
	C683.155396,321.946564 667.660034,329.643127 652.218567,337.441284 
	C650.034180,338.544434 647.919922,339.976532 645.403687,339.856445 
	C644.279907,338.965332 644.610291,337.979675 644.912964,337.033813 
	C652.614319,312.968658 660.399780,288.929993 667.958252,264.820099 
	C669.238708,260.735809 671.808044,260.367615 675.206665,260.805237 
	C692.168640,262.989380 709.129822,265.179840 726.093811,267.348816 
	C732.353638,268.149200 738.620667,268.892365 744.883118,269.672546 
	C746.147095,269.830048 747.613159,269.493896 748.562866,271.335083 
	C743.931519,276.433868 737.431213,279.275513 731.754089,283.870209 
	C734.456848,285.438324 736.946838,285.008942 739.367859,284.967194 
	C741.224060,284.935181 743.284485,284.759369 744.072571,286.871277 
	C744.959961,289.249176 742.692993,289.896240 741.009949,291.147888 
M678.863647,279.330017 
	C679.737366,276.490417 681.750610,275.692657 684.583984,275.652679 
	C689.327759,275.585785 694.066589,275.167999 698.807434,274.897888 
	C692.659302,273.277405 686.462769,272.322266 680.274902,271.313721 
	C677.026489,270.784271 675.269165,272.202423 674.573792,275.316803 
	C672.156921,286.141327 667.508240,296.371246 665.904236,308.280792 
	C671.208374,298.785370 674.877319,289.422791 678.863647,279.330017 
z"/>
<path fill="#000000" opacity="1.000000" stroke="none" 
	d="
M753.426086,224.715637 
	C751.274719,223.247772 749.417480,221.982269 747.560181,220.716751 
	C752.969971,227.097137 760.491028,231.269867 766.131348,239.794708 
	C737.660828,241.021225 710.655457,238.756058 683.768127,239.355469 
	C683.185913,236.578186 684.613770,235.459274 685.600403,234.208801 
	C694.975342,222.326996 704.381775,210.470047 713.784790,198.610413 
	C715.027100,197.043533 716.283325,195.491379 718.229797,194.711395 
	C728.292603,190.679092 737.583862,185.091156 747.222168,180.207947 
	C750.994751,178.296570 752.829285,178.984726 754.247437,182.944626 
	C759.122009,196.555466 764.244019,210.077545 769.190674,223.662949 
	C769.829773,225.418030 771.112366,227.486572 768.753052,229.042679 
	C766.432190,230.573380 764.111145,231.468948 761.403625,229.554123 
	C758.967773,227.831528 756.290771,226.449982 753.426086,224.715637 
M735.599915,199.032211 
	C738.667664,197.046127 742.561768,196.176971 744.859558,192.460403 
	C730.479858,194.437714 710.094849,212.368439 704.151733,228.135925 
	C708.980652,224.106705 712.892761,219.610275 716.586060,214.947372 
	C721.682312,208.513016 727.127563,202.565247 735.599915,199.032211 
z"/>
<path fill="#000000" opacity="1.000000" stroke="none" 
	d="
M528.840454,386.271790 
	C512.469910,384.923431 496.563812,383.556122 480.649811,382.288147 
	C478.230652,382.095428 476.762146,380.703827 475.217834,379.141968 
	C463.033997,366.819183 463.027191,366.829590 470.660187,351.494873 
	C472.366608,348.066711 474.178314,344.682831 475.703796,341.175171 
	C477.081787,338.006561 478.794159,337.890503 481.501343,339.661682 
	C485.537079,342.302094 489.857666,344.507202 493.892181,347.149323 
	C507.983093,356.377014 523.665466,359.963928 540.240601,360.742584 
	C547.134033,361.066467 554.005127,361.867676 560.727051,362.438324 
	C561.105530,364.804260 559.702332,365.445953 558.759094,366.225739 
	C551.582825,372.158112 544.308716,377.972656 537.158569,383.935974 
	C534.807251,385.897003 532.259949,386.635162 528.840454,386.271790 
z"/>
<path fill="#000000" opacity="1.000000" stroke="none" 
	d="
M649.033936,523.724609 
	C665.383423,526.395264 681.298096,529.038269 697.221375,531.628601 
	C698.708618,531.870605 700.231262,531.919617 701.498779,532.817993 
	C702.702209,533.671021 704.197815,534.414856 704.259033,536.129761 
	C704.331421,538.158264 702.460083,538.296509 701.162598,538.849304 
	C679.108032,548.245483 657.108398,557.777161 634.636353,566.155640 
	C632.795410,566.841980 630.788696,568.073914 629.036316,566.277344 
	C619.643494,556.647339 610.326538,546.943237 600.734985,537.007507 
	C601.167236,535.458740 603.259644,535.308899 604.827087,534.612732 
	C610.914246,531.909363 617.249817,529.704895 623.145996,526.645996 
	C631.363342,522.382996 639.690369,521.025452 649.033936,523.724609 
M626.987000,534.549255 
	C623.610168,536.418884 619.199097,536.496277 616.563416,540.560425 
	C618.322266,542.412659 619.822388,544.749512 622.659180,544.027588 
	C633.661926,541.227661 644.605042,538.193420 655.570312,535.246338 
	C646.225342,533.155579 637.053284,529.127991 626.987000,534.549255 
z"/>
<path fill="#000000" opacity="1.000000" stroke="none" 
	d="
M650.208252,180.219772 
	C653.971802,174.844849 654.442505,174.679443 658.570007,178.828644 
	C667.247131,187.551422 675.799927,196.398285 684.365845,205.230942 
	C685.372864,206.269272 686.731323,207.134384 686.944702,209.752975 
	C662.433838,223.621796 637.964966,238.331284 611.184326,249.441040 
	C624.646484,226.559052 635.967102,202.781693 650.208252,180.219772 
z"/>
<path fill="#000000" opacity="1.000000" stroke="none" 
	d="
M680.309509,651.632568 
	C694.915894,670.227112 709.241455,688.581543 723.766846,706.776550 
	C726.212524,709.840088 726.421997,712.124268 723.714539,714.919373 
	C715.217773,723.691406 704.375183,728.222107 693.106995,731.971741 
	C690.739685,732.759460 689.974609,731.254639 689.552856,729.113159 
	C686.313843,712.666565 682.948303,696.244934 679.697998,679.800537 
	C678.089905,671.664673 676.623840,663.500488 675.134338,655.341614 
	C674.721985,653.083069 674.082642,650.777893 675.441772,648.548767 
	C678.124329,647.652344 678.818176,649.986877 680.309509,651.632568 
M693.365356,696.446716 
	C693.127686,696.234314 692.890015,696.021912 692.652405,695.809448 
	C692.556824,695.941223 692.360840,696.090210 692.380005,696.202393 
	C693.551514,703.062134 694.224548,710.042542 697.592285,716.392334 
	C696.245117,709.928345 694.897949,703.464355 693.365356,696.446716 
z"/>
<path fill="#000000" opacity="1.000000" stroke="none" 
	d="
M447.679688,350.249390 
	C445.264679,347.459778 442.575134,346.646576 439.215057,346.137268 
	C418.889130,343.056335 398.318695,341.123993 378.687347,334.449280 
	C374.347229,332.973602 374.377930,332.883270 373.343903,329.468262 
	C378.333252,327.431824 383.675934,327.283356 388.899414,326.968781 
	C406.851074,325.887878 424.758179,326.918915 442.657166,328.427460 
	C451.095398,329.138580 459.578705,329.302032 468.037109,329.791107 
	C473.373566,330.099670 473.981598,331.053528 471.826447,335.878265 
	C468.708557,342.858337 465.491394,349.794708 462.245911,356.716583 
	C461.562103,358.174988 461.117523,359.892731 459.120514,360.761993 
	C454.688538,358.249786 451.793427,353.833893 447.679688,350.249390 
z"/>
<path fill="#000000" opacity="1.000000" stroke="none" 
	d="
M339.527771,569.564636 
	C329.261230,576.352905 319.758057,583.721191 309.071960,588.936829 
	C307.452881,586.739624 308.365601,585.511536 308.761322,584.328979 
	C315.459717,564.312622 323.525574,544.824646 331.536713,525.312744 
	C333.063843,521.593262 334.712463,521.125427 337.669434,523.879150 
	C346.058624,531.691528 354.476898,539.476562 363.045166,547.090698 
	C366.205292,549.898926 365.826752,551.926208 362.586182,554.089294 
	C354.987030,559.161621 347.409943,564.267029 339.527771,569.564636 
M338.822144,543.397522 
	C340.927612,540.913757 341.373840,538.829834 337.179138,537.439697 
	C334.644501,542.025146 332.327240,546.468506 330.987793,552.493225 
	C335.029816,550.000183 335.801544,546.193848 338.822144,543.397522 
z"/>
<path fill="#000000" opacity="1.000000" stroke="none" 
	d="
M579.229614,276.002380 
	C590.122009,274.241943 600.586670,272.574341 611.015930,270.912354 
	C613.172058,279.734680 608.171021,290.887939 600.656860,294.210266 
	C585.296631,301.001678 569.904846,307.722687 554.486450,314.380920 
	C552.111511,315.406555 549.727234,316.753510 547.101868,316.426239 
	C546.273499,315.789124 546.420410,315.100098 546.634644,314.484711 
	C550.240906,304.125488 553.915955,293.789948 557.459595,283.409424 
	C558.496277,280.372528 560.278870,278.894318 563.564148,278.537689 
	C568.671631,277.983276 573.725342,276.934448 579.229614,276.002380 
M574.386780,286.253204 
	C567.344727,286.448608 567.139954,286.555664 566.392761,290.853729 
	C571.334229,289.851868 575.796326,288.115509 580.953735,285.852692 
	C578.458557,286.020691 576.829041,286.130371 574.386780,286.253204 
z"/>
<path fill="#000000" opacity="1.000000" stroke="none" 
	d="
M256.649536,565.397705 
	C260.356873,563.958130 261.835266,565.362061 262.729187,568.593262 
	C266.007202,580.442688 269.503082,592.231750 272.852478,604.061768 
	C273.206757,605.313110 273.596405,606.851929 273.189026,607.973999 
	C270.094635,616.497070 266.805695,624.949524 263.577393,633.423950 
	C262.944641,633.532166 262.311920,633.640381 261.679169,633.748657 
	C252.007584,614.482910 242.335968,595.217163 232.532715,575.689148 
	C240.212830,570.679871 247.964127,567.486633 256.649536,565.397705 
M248.325897,586.006958 
	C248.871201,587.135681 249.416504,588.264343 249.961807,589.393066 
	C246.239807,583.817932 248.143280,579.546387 253.669449,575.876587 
	C250.016312,575.672852 247.525391,576.664795 244.665573,578.167419 
	C245.851685,580.694397 246.953049,583.040894 248.325897,586.006958 
z"/>
<path fill="#000000" opacity="1.000000" stroke="none" 
	d="
M279.009613,468.070557 
	C274.857727,463.060394 271.112671,458.169586 267.028290,453.580780 
	C264.582825,450.833252 264.718262,448.877197 267.455627,446.533539 
	C279.071838,436.588196 290.616638,426.559235 302.157471,416.526276 
	C303.962341,414.957214 305.580017,414.614044 307.263397,416.610291 
	C311.334320,421.437775 315.413574,426.258209 319.497803,431.074432 
	C321.003632,432.850128 320.595184,434.406525 318.989532,435.832397 
	C306.935425,446.536835 294.879578,457.239288 282.821198,467.938904 
	C281.737122,468.900848 280.585754,469.409119 279.009613,468.070557 
M286.182922,442.668671 
	C289.196411,440.079803 292.288971,437.576263 295.200287,434.877197 
	C297.897156,432.377014 301.324524,430.367126 301.912750,426.126068 
	C292.698486,432.347992 284.508789,439.581635 277.120880,447.812561 
	C281.243805,448.316742 282.936829,444.850494 286.182922,442.668671 
z"/>
<path fill="#000000" opacity="1.000000" stroke="none" 
	d="
M577.765076,153.689499 
	C590.745422,145.979065 603.152893,138.034286 615.612061,129.290909 
	C620.002014,136.309448 623.943787,142.820206 628.625793,148.817307 
	C630.246765,150.893600 628.946045,152.171951 627.221069,153.208344 
	C613.691162,161.337387 600.170166,169.478500 587.247986,178.567459 
	C585.655090,179.687866 583.829163,180.310822 582.414185,178.332916 
	C578.090088,172.288345 573.849487,166.184082 569.347900,159.777939 
	C572.415771,157.553406 574.940125,155.722961 577.765076,153.689499 
M591.449402,152.472153 
	C586.619873,151.511978 584.488831,154.848145 582.481018,158.377823 
	C592.472107,154.530685 601.235901,148.739883 609.038025,141.422928 
	C602.528381,143.675247 596.577942,146.818649 591.449402,152.472153 
z"/>
<path fill="#000000" opacity="1.000000" stroke="none" 
	d="
M693.200745,477.205078 
	C698.932190,470.905762 704.658875,465.057343 709.819580,458.746124 
	C712.731628,455.184875 715.024292,455.141510 718.477539,457.730896 
	C723.537292,461.524841 728.813232,465.045746 734.134216,468.469818 
	C736.899780,470.249420 737.472656,471.980560 735.054688,474.369629 
	C726.620483,482.702728 719.203308,491.918457 711.852051,501.186310 
	C710.253296,503.201843 708.525330,503.732086 706.203003,502.582184 
	C699.038330,499.034637 691.860168,495.514038 684.672058,492.014130 
	C681.785889,490.608887 682.256592,488.834167 684.043640,486.916992 
	C686.997253,483.748413 689.985535,480.612213 693.200745,477.205078 
M698.227478,486.573578 
	C705.755066,482.871887 709.582336,475.486328 715.396973,470.247284 
	C713.795288,467.721161 712.372986,467.280487 710.674377,469.167450 
	C706.445068,473.865753 702.196350,478.547058 698.017456,483.289795 
	C697.283020,484.123291 696.469727,485.184204 698.227478,486.573578 
z"/>
<path fill="#000000" opacity="1.000000" stroke="none" 
	d="
M721.785583,337.854675 
	C711.964172,343.551422 702.427673,349.012634 692.955200,354.582520 
	C689.930359,356.361145 686.981201,357.360748 684.630920,353.947479 
	C682.087158,350.253326 684.790771,348.064056 687.539612,346.268799 
	C700.378967,337.883575 713.898254,330.648834 727.217834,323.084198 
	C747.342407,311.654877 767.572021,300.410004 787.797119,289.159058 
	C790.154236,287.847809 792.465454,285.963013 795.966309,287.400970 
	C772.869324,306.422119 747.861450,322.589783 721.785583,337.854675 
z"/>
<path fill="#000000" opacity="1.000000" stroke="none" 
	d="
M663.447937,605.488647 
	C668.755188,593.493835 668.766541,593.467102 680.621155,598.493958 
	C688.901733,602.005310 697.108154,605.694275 705.424194,609.118042 
	C708.957214,610.572632 709.870789,612.433044 708.156250,616.017700 
	C706.005066,620.515259 704.213867,625.198425 702.499878,629.886536 
	C701.497498,632.628479 700.057983,633.035950 697.547852,631.873901 
	C686.058411,626.555237 674.535278,621.309082 663.011353,616.065369 
	C660.256409,614.811768 659.024902,613.218262 661.051208,610.292419 
	C661.989197,608.938171 662.558533,607.328735 663.447937,605.488647 
z"/>
<path fill="#000000" opacity="1.000000" stroke="none" 
	d="
M726.892212,421.951782 
	C719.808960,426.568298 713.287170,431.444611 705.244446,434.852112 
	C704.922913,430.068146 707.728149,426.842651 708.571106,423.100128 
	C710.528931,414.407501 715.712463,408.933258 724.190002,406.258148 
	C727.154053,405.322754 729.892761,403.673126 733.997131,401.761505 
	C726.741150,398.928986 722.207336,405.623962 716.746582,404.498596 
	C715.701233,402.796692 716.828064,402.038788 717.645935,401.313232 
	C724.172363,395.523499 730.663147,390.481628 740.538269,391.521759 
	C748.061157,392.314148 755.800171,390.981598 763.447449,390.726440 
	C764.995178,390.674805 766.749023,389.960602 768.956116,392.065063 
	C754.893372,402.054443 741.037903,411.896576 726.892212,421.951782 
z"/>
<path fill="#000000" opacity="1.000000" stroke="none" 
	d="
M594.925171,717.155151 
	C598.302551,723.115417 601.371155,728.806580 603.468689,734.989990 
	C604.718506,738.674377 604.523865,741.913452 601.409058,744.480896 
	C598.175781,747.145874 594.555481,746.911438 591.141296,744.990051 
	C585.707275,741.931946 581.973816,737.145752 579.897461,731.428406 
	C576.377197,721.734924 574.721375,711.520325 572.602173,701.456970 
	C571.740479,697.364868 573.943359,695.874634 577.803833,697.649292 
	C583.829956,700.419556 587.200134,705.923889 590.972290,710.962708 
	C592.362976,712.820435 593.486023,714.878479 594.925171,717.155151 
z"/>
<path fill="#000000" opacity="1.000000" stroke="none" 
	d="
M300.731323,353.745300 
	C304.523743,348.825714 306.072388,342.776306 311.428497,337.628052 
	C319.313690,355.840057 326.750824,373.017242 334.187988,390.194427 
	C333.752563,390.592255 333.317169,390.990112 332.881775,391.387970 
	C325.317932,387.395203 317.766632,383.378418 310.185059,379.419708 
	C306.313049,377.397980 302.439972,375.464600 301.146729,370.732849 
	C300.545319,368.532227 298.759888,366.245605 300.375427,364.127869 
	C301.897644,362.132477 304.359100,363.361908 306.327637,363.876923 
	C307.508362,362.341644 308.387421,361.006897 307.935455,359.188446 
	C305.773926,358.597961 305.676117,361.587646 303.336578,361.345367 
	C300.884369,359.794830 297.510986,358.358002 300.731323,353.745300 
z"/>
<path fill="#000000" opacity="1.000000" stroke="none" 
	d="
M716.474915,172.464035 
	C709.657532,177.794754 702.390320,181.590363 694.251038,185.524002 
	C692.455200,176.332779 691.537415,167.845154 691.724731,159.229980 
	C691.747681,158.173279 692.252563,157.283691 693.124146,156.707947 
	C700.286133,151.977295 707.463989,147.270752 715.728760,141.839401 
	C717.658264,152.699661 717.778870,162.410522 716.474915,172.464035 
z"/>
<path fill="#000000" opacity="1.000000" stroke="none" 
	d="
M247.630417,746.220947 
	C250.945999,746.594788 252.326660,748.170288 252.776260,751.098206 
	C253.632263,756.672974 254.859467,762.189758 255.785355,767.755066 
	C256.439392,771.686340 252.043945,775.383179 248.157257,774.142700 
	C241.193146,771.920227 234.241302,769.646301 227.357773,767.188232 
	C221.685135,765.162720 220.287720,756.310913 223.697525,751.413269 
	C229.346207,743.299744 236.049271,741.359985 244.812912,745.535461 
	C245.543747,745.883667 246.426529,745.912964 247.630417,746.220947 
M234.090118,752.084167 
	C236.634476,754.776978 239.718506,754.794983 243.842133,754.142151 
	C240.472916,751.887634 237.773254,750.600891 234.090118,752.084167 
z"/>
<path fill="#000000" opacity="1.000000" stroke="none" 
	d="
M632.850830,170.910095 
	C629.330566,173.181412 626.152832,175.318970 622.883728,177.306168 
	C620.497864,178.756470 617.658936,179.863327 615.805725,176.982574 
	C613.959778,174.113159 616.575012,172.313095 618.633179,170.998077 
	C632.941650,161.855682 647.401611,152.948654 661.651306,143.716522 
	C676.750732,133.933884 692.320801,124.956940 707.936401,116.050537 
	C710.117981,114.806252 712.246216,112.983780 715.458557,114.246483 
	C689.352478,135.038940 661.166199,152.749786 632.850830,170.910095 
z"/>
<path fill="#000000" opacity="1.000000" stroke="none" 
	d="
M556.596741,259.562805 
	C571.195374,248.925110 584.684265,237.445724 598.260193,226.196625 
	C600.087219,227.821304 599.191528,229.080307 598.821777,230.249969 
	C597.321411,234.996124 595.254700,239.626907 594.335510,244.478088 
	C592.977600,251.644516 588.551331,255.019226 582.065552,257.139496 
	C570.554382,260.902557 559.182373,265.090851 547.740234,269.067017 
	C546.852478,269.375519 545.871460,269.415497 544.372375,268.637482 
	C548.354370,265.686981 552.336304,262.736481 556.596741,259.562805 
z"/>
<path fill="#000000" opacity="1.000000" stroke="none" 
	d="
M345.362701,605.388000 
	C332.655212,615.910706 319.679047,625.487000 306.392273,634.648743 
	C304.374695,636.040039 302.031738,637.333923 300.228271,634.869629 
	C298.323883,632.267395 300.064117,630.170776 302.298553,628.632874 
	C319.833588,616.563721 336.876160,603.753540 355.448334,593.244812 
	C356.520142,592.638306 357.556122,591.487183 359.614014,592.708801 
	C355.508057,597.659912 350.050659,600.861633 345.362701,605.388000 
z"/>
<path fill="#000000" opacity="1.000000" stroke="none" 
	d="
M769.449219,143.499344 
	C762.259155,148.077347 755.368896,152.451416 748.471436,156.814224 
	C746.492249,158.066086 744.140442,159.853729 742.348816,157.244446 
	C740.453186,154.483826 742.877625,152.529373 744.956787,151.160141 
	C755.948059,143.921768 767.025269,136.813995 778.055054,129.633850 
	C781.684509,127.271141 785.203247,124.733597 788.885132,122.457993 
	C790.899475,121.212997 793.426208,120.111351 795.047241,122.772202 
	C796.549377,125.237991 794.364380,126.861305 792.615173,128.051758 
	C785.042542,133.205505 777.377563,138.223648 769.449219,143.499344 
z"/>
<path fill="#000000" opacity="1.000000" stroke="none" 
	d="
M419.298706,701.478516 
	C422.790710,693.070801 428.298462,686.736389 435.326691,681.718567 
	C437.345520,680.277161 439.875641,678.902100 442.233887,680.794434 
	C444.694458,682.768677 443.365234,685.415161 442.458130,687.669250 
	C439.841919,694.170105 436.667511,700.405579 432.316559,705.929932 
	C430.178497,708.644531 427.348724,710.655518 423.658752,709.372559 
	C420.249634,708.187256 418.988983,705.365479 419.298706,701.478516 
z"/>
<path fill="#000000" opacity="1.000000" stroke="none" 
	d="
M268.730652,523.861938 
	C266.518524,524.006836 265.003662,523.364685 264.587158,521.439392 
	C264.079895,519.094666 265.681610,517.716614 267.360748,516.557800 
	C277.094055,509.840729 286.845947,503.150452 296.604340,496.469818 
	C299.487823,494.495819 302.369263,492.512360 305.334686,490.666748 
	C307.162231,489.529297 309.258820,489.113586 310.649292,491.224670 
	C312.064850,493.373779 310.692413,495.078186 308.998840,496.319458 
	C295.971222,505.868011 282.884979,515.334534 268.730652,523.861938 
z"/>
<path fill="#000000" opacity="1.000000" stroke="none" 
	d="
M744.747803,514.816528 
	C735.238159,520.643921 726.033264,526.274658 716.813049,531.880127 
	C715.539795,532.654175 714.250793,533.472168 712.861389,533.967896 
	C711.056458,534.611816 709.092285,534.652710 708.022400,532.708313 
	C706.885925,530.643127 708.169739,529.224243 709.874146,528.222900 
	C716.456970,524.355530 723.042236,520.491150 729.670837,516.703064 
	C737.164368,512.420715 744.694702,508.202240 752.234863,504.002319 
	C753.784180,503.139313 755.682922,501.746887 757.011841,503.970306 
	C758.164612,505.899078 756.220764,506.973877 754.929871,507.894348 
	C751.687622,510.206146 748.348267,512.381714 744.747803,514.816528 
z"/>
<path fill="#000000" opacity="1.000000" stroke="none" 
	d="
M639.355347,277.496582 
	C635.874084,278.950409 633.105530,281.365723 629.413513,281.199921 
	C627.545105,270.108368 639.983948,255.861359 652.911377,254.824707 
	C650.237244,263.585938 645.943115,270.999146 639.355347,277.496582 
z"/>
<path fill="#000000" opacity="1.000000" stroke="none" 
	d="
M753.733582,350.695312 
	C758.253540,347.835327 762.439087,345.119476 766.693909,342.516876 
	C768.537964,341.388824 770.675171,341.031189 772.037231,343.070496 
	C773.439758,345.170563 772.117310,347.007538 770.364502,348.145752 
	C761.718933,353.759888 753.041016,359.327881 744.268005,364.739410 
	C742.453918,365.858368 739.905457,366.546844 738.462341,364.188507 
	C736.958435,361.730865 738.999573,360.119537 740.795654,358.920532 
	C744.945068,356.150513 749.209473,353.552887 753.733582,350.695312 
z"/>
<path fill="#000000" opacity="1.000000" stroke="none" 
	d="
M318.038147,281.031738 
	C312.698578,279.836456 309.668365,276.904175 309.703522,271.617157 
	C309.733215,267.153656 311.837097,263.895233 316.348877,262.829010 
	C320.930267,261.746307 324.917389,264.184784 326.574005,268.744568 
	C328.050995,272.809906 326.454224,277.355286 322.626282,279.501343 
	C321.343903,280.220306 319.832947,280.531586 318.038147,281.031738 
z"/>
<path fill="#000000" opacity="1.000000" stroke="none" 
	d="
M309.479431,308.102173 
	C311.699677,307.664917 313.217865,308.209900 313.824982,310.061371 
	C314.446167,311.955688 313.202789,313.311920 311.831055,314.235138 
	C303.729340,319.687836 295.584717,325.077667 287.405731,330.413849 
	C285.522156,331.642731 283.479950,331.681549 282.288849,329.442780 
	C280.976044,326.975281 282.586761,325.296753 284.461823,324.076202 
	C292.648560,318.746979 300.892212,313.505188 309.479431,308.102173 
z"/>
<path fill="#000000" opacity="1.000000" stroke="none" 
	d="
M348.844543,471.566406 
	C348.803345,477.779236 345.848206,481.651581 341.110382,482.242249 
	C337.193115,482.730621 333.164856,480.028961 331.995605,476.129272 
	C330.739014,471.938293 332.558258,467.642120 336.444641,465.622772 
	C341.194489,463.154785 345.419189,465.071747 348.844543,471.566406 
z"/>
<path fill="#000000" opacity="1.000000" stroke="none" 
	d="
M804.867554,252.892883 
	C795.667664,259.530182 786.471985,265.500946 776.759888,270.646698 
	C775.357788,271.389618 773.750793,272.688873 772.437744,270.579041 
	C771.201477,268.592651 771.417419,266.656006 773.575378,265.454895 
	C784.610779,259.312744 795.678833,253.229233 806.753967,247.158890 
	C807.475037,246.763641 808.348022,246.685593 809.405273,247.594330 
	C809.754272,250.550583 806.797729,251.133255 804.867554,252.892883 
z"/>
<path fill="#000000" opacity="1.000000" stroke="none" 
	d="
M633.738647,607.716309 
	C631.217163,610.173950 629.268066,608.987183 627.441284,607.317017 
	C620.839050,601.280945 614.255432,595.224548 607.679993,589.159241 
	C606.029785,587.637024 604.345459,585.773193 606.140808,583.628418 
	C607.888306,581.540771 610.100220,582.542480 611.822815,584.108215 
	C618.564453,590.236145 625.282166,596.390930 631.949585,602.599304 
	C633.276794,603.835144 634.465210,605.300537 633.738647,607.716309 
z"/>
<path fill="#000000" opacity="1.000000" stroke="none" 
	d="
M518.388306,137.828827 
	C521.594788,132.468964 525.193970,131.044876 529.598328,133.087021 
	C533.650330,134.965790 535.411194,139.229050 533.903320,143.509674 
	C532.554138,147.339813 528.185669,149.881470 524.407410,149.034576 
	C519.999512,148.046570 517.539185,143.728378 518.388306,137.828827 
z"/>
<path fill="#000000" opacity="1.000000" stroke="none" 
	d="
M706.176514,794.323975 
	C701.458008,797.043823 697.775330,795.906799 695.110596,791.925049 
	C692.758118,788.409912 692.877625,784.603516 695.739624,781.368225 
	C698.515076,778.230652 702.062866,777.920959 705.695862,779.822205 
	C710.919983,782.556091 711.219971,788.669312 706.176514,794.323975 
z"/>
<path fill="#000000" opacity="1.000000" stroke="none" 
	d="
M471.832764,322.809326 
	C466.690094,321.828735 464.680634,314.709259 468.776367,310.995331 
	C472.818237,307.330261 477.910004,304.823059 483.056091,302.252594 
	C482.396454,309.152527 480.359100,315.373901 478.010651,321.457428 
	C477.012024,324.044342 474.273865,322.813324 471.832764,322.809326 
z"/>
<path fill="#000000" opacity="1.000000" stroke="none" 
	d="
M277.619324,675.603027 
	C281.359467,673.071899 284.757568,670.676331 288.233032,668.398865 
	C289.856903,667.334656 291.777985,666.839600 293.205383,668.562439 
	C294.916962,670.628235 293.579590,672.478699 291.940430,673.677856 
	C286.042236,677.992737 280.052979,682.187256 274.012390,686.301270 
	C272.048004,687.639038 269.765198,687.857849 268.347931,685.503723 
	C267.012421,683.285400 268.602478,681.697754 270.256073,680.490723 
	C272.536530,678.826233 274.951569,677.346069 277.619324,675.603027 
z"/>
<path fill="#000000" opacity="1.000000" stroke="none" 
	d="
M278.432129,712.388062 
	C272.951355,716.163025 267.763763,719.721069 262.546082,723.234314 
	C260.523071,724.596436 258.186249,725.751282 256.428802,723.214478 
	C254.648148,720.644348 256.631409,718.905518 258.623840,717.539978 
	C263.811340,713.984680 269.002014,710.430481 274.279419,707.011780 
	C276.109253,705.826294 278.346680,704.870728 280.098846,707.064331 
	C281.770599,709.157166 280.186066,710.723450 278.432129,712.388062 
z"/>
<path fill="#000000" opacity="1.000000" stroke="none" 
	d="
M524.806519,330.699036 
	C522.521240,334.623749 519.981689,337.905884 517.144653,340.964233 
	C514.648254,343.655365 511.634827,344.760986 508.974060,341.770050 
	C506.503876,338.993347 507.175629,335.726105 510.186005,333.537048 
	C515.081238,329.977417 520.089905,326.522827 526.088135,324.822571 
	C527.191345,327.399445 525.652222,328.782013 524.806519,330.699036 
z"/>
<path fill="#000000" opacity="1.000000" stroke="none" 
	d="
M787.349365,216.407715 
	C792.472717,210.076691 799.529358,206.959656 805.997925,203.039886 
	C807.266602,202.271088 809.026550,202.592590 809.891724,204.206436 
	C810.694275,205.703430 810.377747,207.260422 809.115723,208.281219 
	C803.676453,212.680695 797.881714,216.592072 791.601501,219.671432 
	C789.078918,220.908310 787.467468,219.600021 787.349365,216.407715 
z"/>
<path fill="#000000" opacity="1.000000" stroke="none" 
	d="
M776.903992,181.119202 
	C772.033203,180.042374 772.675537,177.132217 775.210083,175.142593 
	C779.879333,171.477264 785.019226,168.391357 790.087219,165.265366 
	C791.868225,164.166824 793.825745,164.806686 794.701660,166.750275 
	C795.708191,168.983765 794.245789,170.666672 792.532043,171.757965 
	C787.508484,174.956894 782.373047,177.980057 776.903992,181.119202 
z"/>
<path fill="#000000" opacity="1.000000" stroke="none" 
	d="
M373.070892,507.397095 
	C374.646484,503.497009 377.261200,501.788239 381.043915,502.585449 
	C383.742676,503.154175 385.945679,504.530426 386.448700,507.663818 
	C387.109985,511.783295 384.974243,514.922546 380.913025,515.618469 
	C376.528229,516.369873 373.667603,513.545410 373.070892,507.397095 
z"/>
<path fill="#000000" opacity="1.000000" stroke="none" 
	d="
M754.213379,276.108337 
	C756.986267,274.532623 759.454346,273.153381 761.927673,271.783478 
	C763.983582,270.644714 765.740417,270.771088 766.992188,273.002655 
	C768.265564,275.272736 766.859314,276.365295 765.105469,277.294800 
	C760.447815,279.763214 756.016968,282.730194 750.792419,284.209961 
	C747.831360,279.669037 751.096313,278.083527 754.213379,276.108337 
z"/>
<path fill="#000000" opacity="1.000000" stroke="none" 
	d="
M511.658752,696.039551 
	C511.034515,688.108704 512.265564,680.454407 511.232513,672.812622 
	C510.979767,670.942932 511.518097,668.915833 513.972473,668.862183 
	C516.691833,668.802673 516.594788,670.894348 516.400940,672.779419 
	C515.653076,680.049866 514.900146,687.320496 514.032837,694.577148 
	C513.910828,695.598389 513.960999,697.619141 511.658752,696.039551 
z"/>
<path fill="#000000" opacity="1.000000" stroke="none" 
	d="
M440.797913,658.157776 
	C443.699127,660.874451 444.032867,663.552612 441.453125,666.164856 
	C439.480438,668.162415 437.001404,668.443909 434.675049,666.856628 
	C432.432312,665.326355 431.285431,663.003174 432.573059,660.405640 
	C434.247314,657.028259 437.067383,656.281311 440.797913,658.157776 
z"/>
<path fill="#000000" opacity="1.000000" stroke="none" 
	d="
M752.274719,440.163391 
	C755.219727,438.316895 757.835999,436.579193 760.613159,435.155243 
	C762.152954,434.365753 763.940125,434.439606 764.876221,436.310913 
	C765.649292,437.856506 765.072388,439.270233 763.765747,440.240662 
	C761.385132,442.008545 758.945923,443.702209 756.474976,445.342163 
	C754.827942,446.435333 753.015869,446.750977 751.507263,445.177185 
	C749.896851,443.496948 750.623901,441.868347 752.274719,440.163391 
z"/>
<path fill="#000000" opacity="1.000000" stroke="none" 
	d="
M442.314240,301.155273 
	C440.508179,300.714081 438.988312,300.393280 438.813354,298.568115 
	C439.320770,296.586884 441.758606,297.931488 442.396545,296.307129 
	C442.866058,295.149902 442.208405,294.408905 441.404205,293.750763 
	C440.219116,292.780914 438.838257,291.783752 440.003845,290.069275 
	C441.096039,288.462830 442.896088,288.494263 444.537384,288.947205 
	C447.294830,289.708191 448.691193,291.755920 448.624298,294.521454 
	C448.532745,298.303589 446.781525,300.849609 442.314240,301.155273 
z"/>
<path fill="#000000" opacity="1.000000" stroke="none" 
	d="
M730.598328,574.173462 
	C733.795349,575.663757 734.910645,577.904053 733.989502,580.865540 
	C733.287781,583.121765 731.616760,584.432861 729.120483,584.400452 
	C726.637268,584.368164 725.071716,582.994324 724.238403,580.798462 
	C722.871338,577.196228 725.241516,574.556152 730.598328,574.173462 
z"/>
<path fill="#000000" opacity="1.000000" stroke="none" 
	d="
M541.215210,680.773071 
	C540.992432,683.194580 540.279297,684.980225 537.985596,684.836548 
	C535.360596,684.672241 535.701294,682.379761 535.727356,680.637207 
	C535.769348,677.833862 535.881104,675.013367 536.259033,672.240356 
	C536.474792,670.656555 537.565857,669.574829 539.454102,669.928101 
	C541.126465,670.241028 541.497681,671.518677 541.494507,672.892334 
	C541.488708,675.375061 541.333801,677.857544 541.215210,680.773071 
z"/>
<path fill="#000000" opacity="1.000000" stroke="none" 
	d="
M234.223206,667.318481 
	C233.008453,665.978760 230.747879,665.448486 231.848663,663.296387 
	C232.611771,661.804443 234.092056,661.427124 235.659943,661.992310 
	C237.238190,662.561157 238.047607,663.837891 237.771088,665.451050 
	C237.472687,667.191956 236.739639,668.719971 234.223206,667.318481 
z"/>
<path fill="#000000" opacity="1.000000" stroke="none" 
	d="
M400.786102,533.003662 
	C402.374542,533.847473 405.195190,533.672852 403.619385,536.426025 
	C402.944214,537.605713 401.460175,538.184692 400.237305,537.208496 
	C398.530548,535.845947 398.267670,534.276367 400.786102,533.003662 
z"/>
</svg>