<?xml version="1.0" standalone="no"?>
<!DOCTYPE svg PUBLIC "-//W3C//DTD SVG 20010904//EN"
 "http://www.w3.org/TR/2001/REC-SVG-20010904/DTD/svg10.dtd">
<svg version="1.0" xmlns="http://www.w3.org/2000/svg"
 width="738.000000pt" height="738.000000pt" viewBox="0 0 738.000000 738.000000"
 preserveAspectRatio="xMidYMid meet">
<metadata>
Created by potrace 1.14, written by Peter Selinger 2001-2017
</metadata>
<g transform="translate(0.000000,738.000000) scale(0.100000,-0.100000)"
fill="#000000" stroke="none">
<path d="M4825 7239 c-22 -5 -56 -11 -75 -15 -19 -3 -51 -18 -70 -32 -38 -28
-249 -239 -317 -318 -24 -27 -61 -69 -83 -94 -22 -25 -40 -49 -40 -53 0 -5 -4
-5 -10 -2 -5 3 -10 2 -10 -4 0 -6 -20 -31 -45 -57 -25 -25 -45 -49 -45 -53 0
-4 -10 -17 -22 -28 -37 -34 -88 -93 -88 -103 0 -5 -9 -11 -19 -15 -10 -3 -25
-19 -34 -36 -8 -17 -18 -30 -23 -30 -5 0 -43 -32 -85 -72 -42 -40 -105 -94
-140 -122 -35 -27 -66 -52 -69 -55 -3 -3 -21 -17 -40 -30 -19 -13 -41 -30 -48
-37 -7 -7 -26 -20 -42 -30 -17 -9 -30 -21 -30 -25 0 -4 -6 -8 -14 -8 -8 0 -16
-3 -18 -7 -5 -13 -86 -73 -97 -73 -5 0 -11 -4 -13 -8 -1 -4 -41 -37 -88 -72
-47 -36 -86 -68 -88 -72 -2 -5 -10 -8 -17 -8 -7 0 -15 -4 -17 -8 -1 -5 -25
-24 -53 -43 -29 -20 -51 -43 -53 -56 -3 -19 20 -126 35 -163 3 -8 7 -22 8 -30
1 -8 9 -49 18 -90 16 -73 20 -96 37 -210 4 -30 6 -201 3 -380 -2 -179 -6 -946
-8 -1705 -1 -759 -6 -1411 -9 -1450 -5 -59 -13 -94 -40 -190 -1 -5 -11 -30
-22 -55 -10 -25 -18 -48 -16 -52 1 -5 -2 -8 -7 -8 -5 0 -14 -14 -21 -31 -7
-17 -18 -36 -24 -42 -14 -15 -50 -71 -48 -74 5 -7 -185 -201 -254 -260 -27
-23 -59 -50 -71 -60 -49 -41 -61 -50 -108 -83 -28 -19 -51 -37 -53 -42 -2 -4
-10 -8 -18 -8 -8 0 -14 -4 -14 -10 0 -5 -7 -10 -15 -10 -8 0 -15 -4 -15 -10 0
-5 -6 -10 -13 -10 -7 0 -22 -8 -33 -18 -10 -9 -50 -33 -89 -52 -38 -19 -71
-38 -73 -42 -2 -5 -10 -8 -18 -8 -8 0 -22 -5 -32 -10 -38 -23 -166 -70 -188
-70 -13 0 -24 -5 -24 -12 0 -6 -3 -8 -6 -5 -4 3 -15 2 -26 -4 -11 -6 -32 -13
-46 -15 -15 -2 -43 -7 -62 -11 -19 -3 -42 -7 -50 -8 -8 -1 -51 -5 -95 -10 -98
-10 -147 -11 -250 0 -105 10 -114 11 -152 23 -18 6 -33 8 -33 4 0 -3 -5 -1
-12 6 -7 7 -18 12 -26 12 -18 0 -183 79 -199 96 -7 7 -22 16 -33 19 -11 3 -20
11 -20 16 0 5 -7 9 -16 9 -8 0 -12 4 -9 10 3 5 1 10 -5 10 -31 0 -163 158
-218 261 -74 136 -93 269 -57 394 9 33 17 66 18 73 0 6 3 12 7 12 4 0 7 6 7
13 0 7 11 36 26 65 14 28 23 52 19 52 -4 0 -1 4 6 9 7 4 15 14 16 22 8 42 27
71 42 65 9 -3 21 -6 26 -6 6 0 9 -3 5 -6 -6 -6 234 -254 247 -254 4 0 22 -10
38 -22 25 -17 47 -22 117 -23 83 -2 133 10 167 40 7 6 31 26 54 45 23 19 56
47 72 63 17 15 38 32 47 37 14 8 12 13 -14 37 -16 16 -48 42 -70 58 -22 17
-42 32 -45 36 -32 36 -161 100 -240 119 -47 11 -197 15 -240 6 -42 -9 -125
-40 -128 -48 -2 -5 -10 -8 -19 -8 -38 0 -180 -116 -239 -197 -16 -21 -31 -40
-34 -43 -3 -3 -17 -30 -32 -60 -71 -146 -80 -327 -23 -462 8 -21 15 -40 15
-43 0 -4 29 -60 66 -125 29 -52 108 -147 158 -190 16 -14 42 -37 57 -52 15
-16 32 -28 37 -28 6 0 12 -4 14 -8 5 -13 198 -128 198 -118 0 2 21 -6 47 -19
25 -13 50 -22 55 -19 4 3 8 1 8 -3 0 -9 138 -47 210 -58 19 -3 43 -8 54 -11
26 -8 311 -8 324 0 6 4 37 9 69 12 32 3 60 10 61 15 2 5 7 7 11 4 5 -2 23 0
42 6 19 6 48 13 64 15 17 3 34 10 40 15 5 5 17 9 27 9 10 0 26 4 36 9 9 5 31
14 47 21 17 7 38 16 47 21 10 5 25 9 33 9 8 0 15 5 15 10 0 6 5 10 10 10 16 0
104 43 112 54 4 6 8 7 8 2 0 -4 11 -1 24 8 14 8 41 25 60 36 20 11 52 29 72
41 21 11 62 37 93 57 31 20 68 43 83 51 15 8 37 22 47 33 11 10 23 18 26 18
10 0 100 63 103 72 2 4 10 8 18 8 8 0 14 5 14 11 0 5 5 7 10 4 6 -3 10 -2 10
2 0 5 16 17 35 27 19 11 35 23 35 28 0 4 7 8 15 8 8 0 15 3 15 8 0 4 13 13 28
20 16 6 38 21 50 32 12 12 22 18 22 14 0 -3 15 5 34 20 19 14 39 26 45 26 6 0
11 5 11 10 0 6 5 10 11 10 6 0 23 8 37 19 24 17 66 41 118 69 33 18 99 46 112
48 8 1 21 6 30 10 9 4 28 9 42 11 13 2 28 10 32 16 4 7 8 9 8 6 0 -4 19 -2 43
2 58 12 166 31 199 34 14 2 57 8 95 14 37 6 84 13 103 16 19 3 44 7 55 9 11 2
35 4 53 5 17 0 32 5 32 10 0 5 -16 26 -35 45 -19 20 -35 34 -35 31 0 -2 -26
20 -57 50 l-57 54 -4 1144 c-3 956 -2 1146 9 1153 18 11 824 15 875 4 21 -4
65 -11 97 -15 32 -3 64 -8 70 -11 7 -2 26 -6 42 -8 17 -2 57 -12 90 -21 97
-28 104 -29 111 -11 3 9 12 16 20 16 8 0 19 9 26 20 7 11 17 20 21 20 5 0 22
14 37 30 15 17 31 30 35 30 4 0 15 8 24 19 9 10 37 35 61 56 53 43 159 138
237 212 30 29 56 53 59 53 4 0 312 309 420 423 45 47 79 88 76 91 -3 3 3 6 13
6 10 0 16 3 13 6 -4 3 16 29 43 57 27 28 49 55 49 60 0 14 -50 -2 -73 -23 -11
-11 -27 -20 -34 -20 -7 0 -13 -4 -13 -8 0 -5 -16 -16 -35 -25 -20 -9 -38 -24
-41 -32 -4 -8 -10 -13 -14 -10 -5 3 -21 -5 -37 -18 -15 -12 -40 -29 -55 -36
-16 -8 -28 -18 -28 -23 0 -4 -9 -8 -20 -8 -11 0 -20 -4 -20 -10 0 -5 -9 -10
-20 -10 -11 0 -20 -4 -20 -10 0 -5 -5 -10 -10 -10 -6 0 -29 -9 -53 -19 -23
-11 -73 -29 -112 -40 -68 -20 -90 -20 -954 -18 l-885 2 -4 430 c-9 957 -7
1217 12 1340 2 11 7 53 11 93 4 40 12 75 17 78 13 8 256 -116 292 -148 11 -10
26 -18 33 -18 7 0 13 -4 13 -10 0 -5 7 -10 15 -10 8 0 15 -4 15 -10 0 -5 7
-10 15 -10 8 0 15 -4 15 -8 0 -5 12 -15 28 -23 15 -8 37 -23 48 -34 12 -11 41
-36 65 -55 24 -19 61 -52 82 -72 22 -21 44 -35 50 -31 6 3 7 1 3 -5 -3 -6 11
-28 31 -50 55 -57 83 -91 83 -101 0 -5 4 -11 9 -13 13 -5 121 -170 127 -195 4
-13 10 -20 15 -17 5 3 9 -2 9 -11 0 -25 44 -115 57 -115 9 0 56 50 138 149 67
80 280 304 523 547 134 134 241 244 239 244 -3 0 27 33 66 74 93 95 129 138
122 144 -6 6 -178 -107 -183 -120 -2 -4 -9 -8 -16 -8 -7 0 -21 -8 -32 -17 -11
-10 -27 -22 -36 -28 -62 -39 -128 -88 -128 -95 0 -4 -9 -6 -20 -3 -11 3 -20 9
-20 14 0 5 -4 9 -10 9 -5 0 -18 8 -28 18 -10 9 -38 33 -63 54 -24 20 -55 46
-69 58 -14 12 -52 45 -85 73 -107 93 -158 140 -250 231 -49 50 -93 89 -97 88
-5 -1 -7 2 -5 7 1 5 -21 33 -48 62 -73 78 -135 154 -135 165 0 6 16 27 35 48
34 38 43 55 28 57 -5 0 -15 2 -23 3 -8 1 -33 -1 -55 -5z"/>
<path d="M2195 5682 c-6 -4 -26 -27 -45 -52 -19 -24 -42 -52 -50 -61 -8 -8
-28 -33 -45 -54 -38 -49 -200 -244 -255 -306 -14 -15 -41 -47 -60 -70 -19 -23
-41 -47 -47 -55 -20 -20 -16 -39 15 -71 29 -33 104 -117 152 -173 17 -19 44
-50 60 -69 17 -18 30 -37 30 -42 0 -5 7 -9 16 -9 8 0 13 -4 10 -8 -3 -5 10
-25 29 -45 19 -21 33 -37 30 -37 -3 0 6 -12 20 -26 14 -14 55 -66 91 -115 36
-49 71 -89 77 -89 10 1 60 59 92 108 6 8 17 23 25 32 8 9 44 54 80 100 36 46
71 89 78 97 7 7 11 13 9 13 -3 0 9 15 26 34 18 18 46 51 64 72 18 22 45 54 60
73 15 18 42 49 60 67 18 19 30 34 27 34 -3 0 7 11 21 25 14 14 25 29 25 34 0
4 -62 71 -137 149 -76 78 -166 172 -200 209 -34 38 -85 93 -112 123 -28 30
-51 58 -51 63 0 4 -7 7 -17 7 -9 0 -13 3 -10 6 8 8 -31 44 -47 44 -6 0 -16 -4
-21 -8z"/>
<path d="M2062 4100 c-83 -81 -148 -150 -145 -154 4 -3 2 -6 -4 -6 -15 0 -73
-55 -73 -69 0 -6 -4 -11 -9 -11 -5 0 -38 -29 -74 -65 -36 -36 -63 -65 -60 -65
3 0 -5 -9 -18 -19 l-24 -19 40 -45 c22 -25 46 -46 54 -46 8 -1 12 -3 9 -6 -9
-10 172 -186 184 -179 7 4 8 3 4 -5 -7 -11 21 -45 131 -158 23 -24 40 -43 38
-43 -2 0 22 -27 54 -61 48 -50 63 -60 81 -54 12 4 19 9 16 12 -2 3 5 15 17 27
12 12 37 41 55 64 64 78 132 159 150 178 7 8 11 14 8 14 -3 0 5 10 17 23 12
12 45 49 72 81 28 33 59 67 69 78 11 10 17 18 14 18 -3 0 8 15 26 33 17 18 46
50 65 71 l33 38 -56 52 c-138 125 -168 152 -191 174 -13 12 -30 22 -36 22 -7
0 -9 3 -6 7 8 7 -34 39 -45 35 -5 -1 -7 2 -5 7 1 5 -16 26 -39 47 -22 22 -72
68 -110 104 -37 35 -73 65 -79 66 -7 1 -80 -65 -163 -146z"/>
<path d="M2148 2867 c-31 -34 -78 -86 -105 -116 -26 -30 -66 -73 -88 -96 -22
-24 -67 -73 -100 -111 -33 -37 -71 -78 -84 -91 -13 -13 -22 -23 -19 -23 2 0
-20 -26 -49 -57 l-53 -56 77 -81 c43 -44 84 -87 91 -94 6 -7 12 -11 12 -8 0 3
19 -15 43 -41 23 -25 85 -90 137 -144 52 -53 118 -122 145 -153 28 -31 62 -63
77 -71 25 -14 28 -14 39 7 6 12 16 27 21 32 20 25 44 56 63 82 11 15 33 40 48
56 16 15 26 28 23 28 -3 0 3 10 13 23 52 59 61 71 93 109 33 42 140 167 190
223 54 61 68 78 68 84 0 4 -34 38 -76 76 -77 71 -90 85 -110 107 -45 50 -384
378 -390 378 -5 0 -35 -28 -66 -63z"/>
</g>
</svg>
